<?xml version="1.0" encoding="UTF-8" standalone="no"?>
<!-- Created with Inkscape (http://www.inkscape.org/) -->

<svg
   width="99.634987mm"
   height="99.635002mm"
   viewBox="0 0 99.634987 99.635002"
   version="1.1"
   id="svg1"
   sodipodi:docname="teacher.svg"
   inkscape:version="1.3.2 (091e20e, 2023-11-25, custom)"
   xmlns:inkscape="http://www.inkscape.org/namespaces/inkscape"
   xmlns:sodipodi="http://sodipodi.sourceforge.net/DTD/sodipodi-0.dtd"
   xmlns="http://www.w3.org/2000/svg"
   xmlns:svg="http://www.w3.org/2000/svg">
  <sodipodi:namedview
     id="namedview1"
     pagecolor="#ffffff"
     bordercolor="#666666"
     borderopacity="1.0"
     inkscape:showpageshadow="2"
     inkscape:pageopacity="0.0"
     inkscape:pagecheckerboard="0"
     inkscape:deskcolor="#d1d1d1"
     inkscape:document-units="mm"
     inkscape:zoom="1.6311518"
     inkscape:cx="445.69733"
     inkscape:cy="340.5569"
     inkscape:window-width="3840"
     inkscape:window-height="2066"
     inkscape:window-x="-11"
     inkscape:window-y="-11"
     inkscape:window-maximized="1"
     inkscape:current-layer="layer1"
     showgrid="false" />
  <defs
     id="defs1" />
  <g
     inkscape:label="Laag 1"
     inkscape:groupmode="layer"
     id="layer1"
     transform="translate(-199.5134,-0.16220646)">
    <path
       id="path7-9"
       d="m 247.98826,76.124308 0.88593,2.171578 0.88593,-2.171578 z m 0.86421,-0.04345 V 60.594652 m 14.14494,-17.681555 a 13.884595,13.866057 0 0 1 -13.88459,13.866057 13.884595,13.866057 0 0 1 -13.8846,-13.866057 13.884595,13.866057 0 0 1 13.8846,-13.866057 13.884595,13.866057 0 0 1 13.88459,13.866057 z m 13.41387,-11.092795 a 1.7355743,3.2931888 0 0 1 -1.73557,3.293189 1.7355743,3.2931888 0 0 1 -1.73557,-3.293189 1.7355743,3.2931888 0 0 1 1.73557,-3.293188 1.7355743,3.2931888 0 0 1 1.73557,3.293188 z m -3.43536,-11.652726 v 10.595812 m -47.71025,-9.617779 h 15.99659 v 7.335557 h 16.15981 v -7.335557 h 15.34366 v -3.586287 h -47.33684 z m -1.79555,60.640676 h 50.76468 c 0,0 0.14275,-23.104869 -18.44505,-25.42994 h -13.87456 c -18.46508,1.22373 -18.44506,25.42994 -18.44506,25.42994" />
  </g>
</svg>
